<svg width="319" height="300" viewBox="0 0 319 300" fill="none" xmlns="http://www.w3.org/2000/svg">
<path id="adav" d="M69.1778 12.7257L65.4161 7.71032L62.6572 5.59735L53.367 1.03102L48.4858 0.873535L43.0534 4.18015L35.4954 5.36103L30.2992 7.80165L27.5436 15.2023L23.7646 20.3984L18.0173 23.8626L10.5984 29.909L10.7159 34.1415L9.77538 40.0199L6.24831 44.8403L2.25096 51.6593L10.6637 61.7966L6.25799 70.3631L5.89085 77.3387L7.72654 85.6606L8.28724 103.255L1.55762 113.574L4.54845 119.406L9.93207 122.995L12.6238 131.37L20.5499 134.81L23.5409 141.988L23.84 149.914L20.4005 160.682L28.9416 181.544L34.4191 192.499L39.8969 195.046L46.2662 196.957L48.8141 201.671L48.8142 206.384L50.2153 212.116L52.2536 217.976L52.6356 224.345L52.8903 233.772L69.8623 245.631L82.1685 257.492L86.0235 258.604L90.3232 257.715L92.7025 252.401L98.9534 242.074L98.138 237.816L91.8871 231.293L93.4272 217.613L100.675 210.366L110.459 195.418L115.26 190.617L119.971 190.254H129.845L138.271 188.352L143.611 190.997L143.746 199.25L157.139 199.656L161.604 202.632L165.933 208.99L165.121 214.402L168.909 218.46L171.885 225.224L172.968 232.394L166.339 246.599L176.756 259.587L189.202 275.685L194.32 287.631L198.787 288.748L204.023 292.657L208.56 297.544L213.447 298.8L216.309 294.333L219.799 283.164L225.697 273.085L220.11 267.432L217.218 263.291L220.044 253.695L223.331 243.835L226.42 237.065L233.19 234.435L240.618 235.29L248.571 234.896L254.75 233.844L259.22 235.553L259.286 240.548L258.497 245.741L261.455 249.882L270.854 249.685L276.967 251.328L283.54 254.878L289.522 257.376L293.006 260.596L292.874 265.658L295.635 268.681L300.959 266.315L307.729 264.475L312.528 265.921L317.72 265.132L316.209 261.057L310.03 251.46L311.388 235.145L305.957 223.905L293.454 224.347L288.554 209.597L292.186 198.996L288.849 194.677L278.051 189.868L263.328 181.426L260.383 178.089L261.339 170.499L258.069 169.17L253.574 165.492L251.53 162.631L245.604 162.734L241.517 165.084L235.489 167.842L230.074 169.375L224.148 166.718L220.878 163.755L215.667 162.018L212.398 159.26L213.113 154.355L216.178 149.553L220.469 144.444L223.432 138.723L225.885 133.001L227.621 127.075L229.154 122.068L232.935 116.449L231.967 109.309L230.966 103.601L233.369 99.1943L241.481 95.3888L250.795 97.0913L258.005 101.998L263.813 101.398L266.618 97.2916L268.32 91.7836L274.629 92.4846L276.031 82.5702L274.529 69.0505L271.425 60.8386L271.024 53.2275L269.321 45.5163L267.819 37.6048L251.395 35.3014L248.591 31.4959L246.388 23.4843L241.581 16.8747L240.48 9.2636L235.572 6.55968L221.552 16.8747L211.938 17.075L195.639 16.3082L189.907 15.95L182.742 20.6072L173.428 21.3237L166.263 26.6974L160.889 25.6227L152.291 28.4887L146.201 34.758L139.753 40.6691L132.229 44.0725L120.765 44.4307L120.945 42.9977L119.512 35.6536L116.108 31.3546L110.018 31.5338L101.957 33.1459L92.4638 33.325L87.9857 30.8173L82.4329 27.4139L75.447 23.8314L70.2524 19.7116L69.1778 12.7257Z" fill="#C4C4C4" stroke="#C4C4C4"/>
</svg>
