<svg width="552" height="559" viewBox="0 0 552 559" fill="none" xmlns="http://www.w3.org/2000/svg">
<g id="cok-sta">
<path id="cok-sta2" d="M25.0436 326.847L19.695 326.6L12.2679 327.713L4.92743 330.126C4.12299 331.769 2.494 335.154 2.41356 335.556C2.33311 335.958 2.24596 340.215 2.21245 342.293C2.34652 343.902 2.61467 347.221 2.61467 347.623C2.61467 348.025 2.14541 351.612 1.91078 353.354L1.4082 360.896L3.01729 366.326L6.53653 370.65L11.6648 375.477L14.9831 377.287L20.1114 377.387L26.8486 377.186L32.4796 377.789L35.9991 380.907L40.2224 383.823L45.8535 387.242L50.2779 390.359L52.4901 394.884L51.0823 400.816L50.1773 405.442L53.4956 409.364L61.7411 411.174L73.0033 413.386L82.1538 411.073L89.796 411.174L98.1421 413.486L108.298 413.185L113.024 410.168L119.761 409.364L124.186 406.246L127.504 401.52L129.712 390.372C129.959 389.577 130.452 387.887 130.452 387.492C130.452 386.998 129.547 383.542 129.547 382.884C129.547 382.357 128.285 380.909 127.655 380.251L124.445 377.7L121.401 373.503L118.521 369.636L115.476 367.908L105.437 369.883L98.7721 369.471L92.8475 366.591L88.4863 363.135L85.0303 359.762L80.0109 358.363L70.9594 356.388L65.6931 354.166L60.4267 351.615C59.7959 350.765 58.5177 348.982 58.4519 348.653C58.3861 348.324 56.9982 345.718 56.3124 344.456L53.5147 341.494L46.8495 341.083L40.2666 341L36.3169 336.886L32.3672 333.183L28.8288 329.563L25.0436 326.847Z" fill="#C4C4C4" stroke="#C4C4C4"/>
<path id="cok-sta1" d="M303.511 24.1886L305.794 29.7047L308.422 38.3559L303.022 42.5437L295.969 45.0784L289.246 49.4866L281.532 50.5336L268.542 49.3867L262.499 46.7714L255.555 49.0259L248.611 50.8296L245.094 53.3097L245.996 58.5403L246.176 64.3571L242.028 68.3252L234.858 68.6408L226.065 67.4685L218.67 65.259L205.05 60.3547L198.952 56.8501L193.976 53.9063L186.686 51.5933L178.976 50.5419L172.177 49.6307L169.864 45.0046L167.341 37.645L160.262 37.0843L152.762 37.5049L144.211 38.2058L138.954 43.8131L134.608 51.1026L127.155 60.0479L126.671 63.1127L122.477 65.613L115.863 66.7421L114.412 72.7104L113.122 76.0978L117.136 83.1554L123.01 86.0594L131.062 90.1514C131.282 92.3074 131.696 96.7118 131.59 97.0814C131.484 97.451 132.118 103.175 132.448 105.991L134.098 112.195L136.87 112.327H144.922L151.984 110.941L157.99 112.129L161.62 115.825L163.996 121.831L164.656 129.025L162.808 134.305L164.788 138.925L167.89 143.413L171.124 147.439L175.282 152.785L179.836 155.293L183.796 151.597L184.918 142.489L183.908 135.138L185.934 131.413L189.876 128.014L194.469 126.422L199.424 124.686L202.462 119.912L204.56 116.91L207.851 114.342L215.482 113.257L225.752 112.448L231.089 111.712L237.299 110.377L242.268 110.285L248.25 115.701L256.12 116.432L261.911 115.195L269.276 115.308L273.829 117.331L281.531 119.805L288.39 120.48L293.843 121.998L295.811 126.214L299.184 131.386L303.85 136.221L309.865 140.212L314.194 146.059C314.644 147.839 315.555 151.49 315.6 151.85C315.645 152.21 316.705 155.71 317.23 157.415L319.479 163.318L318.86 168.996L315.656 175.124L309.022 178.329L303.513 176.249L297.554 172.988L294.18 170.008L289.571 167.085L286.31 166.579L281.194 168.209L277.446 166.117L269.082 162.2L262.359 161.882L256.166 162.676L250.131 164L242.455 166.593L238.273 170.352L233.773 179.351L231.021 183.427L226.68 187.08L223.239 191.95L222.868 197.244L223.715 203.438L221.704 209.631L219.057 213.443L220.645 224.718L221.439 229.218L220.804 233.664L217.575 235.2L210.799 235.782L205.876 236.841L201.006 240.123L196.982 241.817L190.842 241.393L185.283 239.593L182.16 237.37L175.225 238.746L162.848 246.164L158.715 247.049L155.505 248.156L152.294 250.001L149.822 252.732L145.21 254.356L140.56 254.429L137.977 257.234L133.486 273.545L132.683 278.879L133.027 285.533L135.207 290.121L135.975 299.76L135.744 305.79L135.668 312.013L135.629 316.199L137.742 319.887L144.902 320.845L148.423 320.751L152.037 323.611L156.877 326L161.12 326.66L167.493 324.187L172.773 325.309L180.166 326.101L187.821 326.365L194.685 326.827L198.645 329.995L204.255 332.767L218.503 334.113L226.566 333.006L233.522 330.318L238.74 332.69L247.83 334.35L253.127 337.828L257 343.678L259.293 350.397L264.194 355.457L269.254 359.093L275.815 363.125L283.185 368.917L282.248 375.364L282.083 381.701L285.279 388.038L292.221 392.005L296.685 397.35L305.997 402.089L311.232 411.071L316.026 416.416L320.048 421.045L322.308 425.783L324.115 433.083L326.892 437.596L330.826 443.266L331.868 448.357L329.901 453.563L325.967 457.15L322.033 461.316L317.867 466.638L315.322 472.424L315.669 482.027L321.57 487.928L326.545 491.862L331.289 495.565L332.678 500.54L335.455 508.293L336.727 513.846L341.124 517.086L345.521 519.979L348.761 526.574L349.339 531.665L350.728 536.988L353.968 540.227L358.596 542.079L365.307 545.781L374.27 553.842L380.331 552.244L386.668 553.016L391.737 557.92L396.696 552.41L400.278 547.175L401.766 541.609L403.309 536.54C404.466 535.254 406.802 532.628 406.89 532.407C406.979 532.187 410.601 530.295 412.401 529.377L416.038 526.401L417.47 520.725L417.774 512.87L419.316 508.331L423.598 504.99L429.251 504.134L432.249 500.108L432.849 493.17L433.363 486.403L436.983 481.395L442.59 479.712L449.109 480.133L456.819 479.011L460.814 476.068L464.739 472.072L468.384 467.657L466.421 462.049L463.407 459.947L458.431 457.563L455.066 455.18L454.085 450.064L454.716 444.526L455.557 439.059L455.978 432.19L452.824 427.704L446.083 421.699L445.793 415.093L450.973 409.583L457.916 405.616L462.985 399.995L467.476 392.949L481.016 387.268L481.395 375.243C480.732 371.897 479.388 365.093 479.312 364.638C479.236 364.184 476.377 360.156 474.956 358.2L469.654 355.548L464.541 352.234L464.92 346.08L470.98 338.505L477.702 332.635L479.123 325.533L483.266 319.722L497.596 314.903L513.637 313.128L524.543 309.831L532.532 307.104L542.804 303.173L546.228 298.671L548.13 293.979L546.735 290.111L542.867 286.053L541.282 281.235L543.565 277.621L550.657 271.164L550.148 262.105L542.167 256.836L534.884 250.25L526.693 243.611L521.246 238.164L514.132 235.941L503.906 235.385L497.681 230.05L494.235 221.935L490.233 217.822L481.674 208.262L474.199 196.288L468.139 187.577L461.227 184.548L455.546 181.328L451.125 173.93L445.159 168.274L441.13 162.153L440.2 156.651L436.481 152.467L431.91 148.051L425.479 143.17L419.977 138.908L415.018 135.111L410.292 132.322L403.628 131.392L397.972 131.935L393.401 135.809L386.195 136.196C384.749 135.55 381.809 134.166 381.623 133.794C381.391 133.329 382.941 131.005 383.018 130.23C383.096 129.455 382.631 126.123 382.553 125.658C382.491 125.287 381.081 123.386 380.384 122.482L373.41 121.474L365.042 120.39L360.393 116.593L355.512 115.043L349.158 119.072L341.797 120.777L337.071 117.678L333.494 109.625L330.698 104.832L326.038 101.503L319.115 98.1749L320.446 91.651L324.84 87.1242L326.038 80.334L327.103 74.4758L329.899 69.5496L336.157 67.8188L340.95 64.224L342.548 58.7652L344.852 52.6577L348.212 49.9313L351.446 47.6487C351.615 45.7043 351.953 41.7139 351.953 41.3081C351.953 40.8009 351.256 34.3335 351.065 33.6995C350.875 33.0654 349.544 28.8807 349.29 28.5002C349.036 28.1198 346.183 25.647 345.866 25.4568C345.549 25.2666 342.759 25.3934 342.442 25.4568C342.189 25.5075 338.152 25.9851 336.165 26.2176L331.917 25.5836L330.268 21.6524L330.078 16.7068L327.732 11.3807L322.533 7.32278L318.221 3.83548L314.036 0.791992L310.169 4.65965L309.281 9.85878L309.027 15.1848L307.316 20.511L303.511 24.1886Z" fill="#C4C4C4" stroke="#C4C4C4"/>
</g>
</svg>
