<svg width="499" height="389" viewBox="0 0 499 389" fill="none" xmlns="http://www.w3.org/2000/svg">
<path d="M21.5074 3.53245L16.5606 1.21351L11.494 4.28268L7.59405 7.11903L3.79538 10.9177L0.581543 21.7014L2.0737 27.7112L8.88822 45.7513L10.8027 52.7707L13.2487 59.0456L16.0141 65.9586L16.9713 72.8717L16.5458 78.9339L16.6068 90.9677L17.503 93.6565L21.7207 95.8708L24.6731 97.7688L29.6816 99.1922L33.7412 99.983L38.2225 99.8776L41.8603 99.1395L45.2871 103.357L52.8237 112.368L55.1536 115.001L57.0782 120.066L56.4704 124.827L53.8367 128.575L53.6847 134.299L55.0016 140.782C55.7685 145.129 57.2774 153.887 57.1784 154.134C57.0794 154.382 55.4867 157.043 54.7027 158.343C53.4235 159.746 50.8157 162.601 50.6177 162.799C50.4196 162.997 48.1007 165.481 46.9659 166.699L42.3239 169.36L39.353 172.95L39.4768 177.035L42.819 179.387L45.9756 180.872L49.3179 182.915L53.1553 186.814L54.4551 191.27L61.2821 197.053L65.9418 199.281L69.4872 203.586L71.108 208.803L75.7171 213.007L79.2118 216.553L86.3027 219.541L92.7351 221.263L99.9779 222.428L107.069 224.049L111.019 226.075L117.3 227.189L130.317 219.946L135.685 218.629L143.08 219.136L149.715 218.021L159.237 216.654L166.733 215.236L179.915 204.223L183.458 199.02L188.771 195.699L196.078 193.927L199.399 190.385L200.617 184.407L202.388 179.093L211.085 168.765L213.199 166.09L216.91 163.07L221.709 152.986L223.345 151.022L223.719 146.722L224.56 142.468L226.991 138.121L229.141 133.913L226.056 125.92L222.83 122.18L221.942 118.581L221.568 114.374L221.709 110.447L221.24 103.305L219.749 100.78L217.951 98.2172L216.421 94.6214L215.12 91.8672L213.972 89.0748L211.907 86.7413L207.928 85.02L196.952 84.7911L194.312 84.563L191.184 84.8237L186.59 86.9091L182.289 87.4304L179.78 85.8338L176.293 82.9338L174.338 80.7181L165.771 79.5977L158.174 83.8522L153.97 87.2964L148.601 92.108L144.549 93.982L140.7 97.7301L138.826 102.137L137.053 107.303L133.153 110.949L122.37 118.63L119.571 119.84L116.168 122.109L112.688 125.361L110.344 128.16L108.302 130.731L108.453 134.059L110.041 137.387L111.327 141.698L111.478 146.766L109.285 150.094L106.638 153.271L102.251 156.22L96.6538 156.599C95.5193 156.372 93.22 155.842 93.0989 155.54C92.9477 155.161 91.9644 153.044 91.8131 152.59C91.6921 152.227 89.292 150.623 88.107 149.867L85.1572 146.917L83.0395 143.741L84.4009 139.656L86.6699 135.723L89.0146 132.093L91.0568 128.008L95.0418 121.695L94.4065 115.501L91.3889 108.99L87.5772 104.384L81.0655 102.478L76.3009 97.8723L72.648 93.4253L69.6304 89.9313L65.1834 85.1666L61.3717 80.8785L56.9247 78.1785L53.5894 74.8433L48.5072 72.9374L45.4896 70.2374L45.1719 63.8846L45.4896 56.5788L46.4425 49.9083L46.7601 42.1261L47.7131 36.7262L45.8072 30.8498L42.9484 26.8793L37.072 24.497L34.3721 20.05L29.6075 15.1265L25.1605 11.7913L24.2075 7.97955L21.5074 3.53245Z" fill="#C4C4C4"/>
<path d="M16.4254 1.15013L21.5074 3.53245L24.2075 7.97955L25.1605 11.7913L29.6075 15.1265L34.3721 20.05L37.072 24.497L42.9484 26.8793L45.8072 30.8498L47.7131 36.7262L46.7601 42.1261L46.4425 49.9083L45.4896 56.5788L45.1719 63.8846L45.4896 70.2374L48.5072 72.9374L53.5894 74.8433L56.9247 78.1785L61.3717 80.8785L65.1834 85.1666L69.6304 89.9313L72.648 93.4253L76.3009 97.8723L81.0655 102.478L87.5772 104.384L91.3889 108.99L94.4065 115.501L95.0418 121.695L91.0568 128.008L89.0146 132.093L86.6699 135.723L84.4009 139.656L83.0395 143.741L85.1572 146.917L88.107 149.867C89.292 150.623 91.6921 152.227 91.8131 152.59C91.9644 153.044 92.9477 155.161 93.0989 155.54C93.22 155.842 95.5193 156.372 96.6538 156.599L102.251 156.22L106.638 153.271L109.285 150.094L111.478 146.766L111.327 141.698L110.041 137.387L108.453 134.059L108.302 130.731L110.344 128.16L112.688 125.361L116.168 122.109L119.571 119.84L122.37 118.63L133.153 110.949L137.053 107.303L138.826 102.137L140.7 97.7301L144.549 93.982L148.601 92.108L153.97 87.2964L158.174 83.8522L165.771 79.5977L174.338 80.7181L176.293 82.9338L179.78 85.8338L182.289 87.4304L186.59 86.9091L191.184 84.8237L194.312 84.563L196.952 84.7911L207.928 85.02L211.907 86.7413L213.972 89.0748L215.12 91.8672L216.421 94.6214L217.951 98.2172L219.749 100.78L221.24 103.305L221.709 110.447L221.568 114.374L221.942 118.581L222.83 122.18L226.056 125.92L229.141 133.913L226.991 138.121L224.56 142.468L223.719 146.722L223.345 151.022L221.709 152.986L216.91 163.07L213.199 166.09L211.085 168.765L202.388 179.093L200.617 184.407L199.399 190.385L196.078 193.927L188.771 195.699L183.458 199.02L179.915 204.223L166.733 215.236L159.237 216.654L149.715 218.021L143.08 219.136L135.685 218.629L130.317 219.946L117.3 227.189L111.019 226.075L107.069 224.049L99.9779 222.428L92.7351 221.263L86.3027 219.541L79.2118 216.553L75.7171 213.007L71.108 208.803L69.4872 203.586L65.9418 199.281L61.2821 197.053L54.4551 191.27L53.1553 186.814L49.3179 182.915L45.9756 180.872L42.819 179.387L39.4768 177.035L39.353 172.95L42.3239 169.36L46.9659 166.699C48.1007 165.481 50.4196 162.997 50.6177 162.799C50.8157 162.601 53.4235 159.746 54.7027 158.343C55.4867 157.043 57.0794 154.382 57.1784 154.134C57.2774 153.887 55.7685 145.129 55.0016 140.782L53.6847 134.299L53.8367 128.575L56.4704 124.827L57.0782 120.066L55.1536 115.001L52.8237 112.368L45.2871 103.357L41.8603 99.1395L38.2225 99.8776L33.7412 99.983L29.6816 99.1922L24.6731 97.7688L21.7207 95.8708L17.503 93.6565L16.6068 90.9677L16.5458 78.9339L16.9713 72.8717L16.0141 65.9586L13.2487 59.0456L10.8027 52.7707L8.88822 45.7513L2.0737 27.7112L0.581543 21.7014L3.79538 10.9177L7.59405 7.11903L11.494 4.28268L16.7615 1.0918" stroke="#C4C4C4"/>
<path d="M268.8 181.551L273.104 175.366L280.078 171.844L291.198 166.483L306.631 160.461L312.662 156.174L321.599 149.635L328.575 144.912L334.824 140.77L340.128 134.593L345.868 133.722L352.408 133.068L358.73 132.414L363.816 134.085C365.608 135.465 369.251 138.27 369.484 138.445C369.716 138.619 372.148 141.569 373.335 143.022L377.694 146.801L381.182 151.596L386.632 155.229L390.41 160.461L394.519 173.544L397.666 179.295L400.379 186.24L399.076 191.774L398.208 197.308L398.425 204.035L397.449 211.088L395.821 218.141L392.566 223.133L389.745 229.535L389.528 235.72L391.626 247.456L393.261 253.806L395.763 262.08L397.591 268.526L400.573 279.205L400.958 284.977L404.71 291.231L409.424 295.849L419.745 301.829L424.46 303.716L430.343 305.557L437.663 307.757L442.109 311.44L446.869 317.098L451.944 323.206L455.671 329.942L461.865 340.693L467.689 342.061L477.313 342.364L481.567 345.251L486.379 348.797L490.279 352.444L492.609 358.015L496.559 363.485L497.927 370.627L497.674 376.451L494.954 381.408L488.888 381.841L481.213 381.532L473.105 384.75L465.74 387.845L462.15 384.75L457.693 377.942L455.032 372.372L446.822 366.828L439.579 361.864L431.779 357.407L428.082 355.685L424.385 353.862L418.053 352.342L412.685 351.329L406.151 351.076L403.081 348.362L401.7 345.023L400.495 341.508L397.357 338.294L393.415 335.683L388.451 331.35L388.643 326.444L387.585 321.152L388.258 317.592L385.276 313.263L378.349 307.683L373.057 304.508L367.477 302.295L360.935 302.68L354.874 305.759L348.428 306.24L345.638 302.103L343.906 295.368L339.48 290.558L332.265 289.018L326.107 287.094L321.879 274.648L319.363 269.953L317.277 265.443L308.716 259.552L304.605 256.484L301.537 253.631L290.613 246.718L285.319 244.095L279.405 241.186L273.825 239.517L269.438 238.038L265.622 234.986L263.285 231.457L263.476 219.677L261.95 217.34L259.947 212.475L260.71 208.612L266.434 199.356L268.155 190.319L268.8 181.551Z" fill="#C4C4C4" stroke="#C4C4C4"/>
</svg>
