<svg width="288" height="388" viewBox="0 0 288 388" fill="none" xmlns="http://www.w3.org/2000/svg">
<path d="M75.4796 65.7538L69.4186 66.5233L67.0461 70.1835L62.8761 72.6161L59.8975 75.3465L54.4613 86.59L50.5885 91.0545L47.4687 96.3259L49.6203 100.737L51.1264 104.825L56.5053 107.137L61.938 108.482L66.4025 110.311L68.7154 113.162L68.5002 117.465L68.6078 128.868L67.8548 133.494L65.1653 136.829L62.3145 138.658L57.85 139.68L54.4075 140.971L54.1923 144.037L52.848 153.506L49.5615 156.726C48.0278 158.917 44.8946 163.326 44.6317 163.431C44.3687 163.536 42.3749 165.14 41.4108 165.929L38.5187 168.295L34.5748 171.187L31.8141 173.948L32.3969 177.815L36.7156 181.389L41.6969 181.234L47.9237 180.922L50.7257 186.215L49.9175 190.185L52.1267 193.843L52.2824 200.225L48.235 203.027L43.565 205.207L34.8475 206.296L30.6445 212.368L26.4414 215.637L20.2147 217.505L13.521 218.594L9.62924 223.731L10.7189 227.312L13.054 235.718C13.6766 239.35 14.8597 246.801 14.6106 247.549C14.2993 248.483 13.6766 250.351 13.054 251.285C12.4313 252.219 9.47358 258.134 8.8509 258.757C8.35276 259.255 5.94509 262.389 4.80352 263.894L1.22314 267.474L2.46826 270.743L5.89283 272.456C6.88911 272.954 7.34562 273.805 7.44934 274.168L8.38324 278.371L9.31721 283.197L9.93973 286.777L14.1427 284.598L20.9922 281.64L25.818 278.215L31.1106 276.97L37.026 275.88L47.6114 276.036L54.3052 275.102L60.376 276.503L65.0462 280.083L69.0938 283.975L72.0515 286.777L75.3205 289.89L76.0988 294.56L75.6318 300.787L81.0802 304.99L85.2833 307.014L89.642 309.816L93.1471 314.019L94.923 318.636L104.513 322.809L108.597 324.141L112.682 323.875L118.72 322.632L124.58 319.08L131.684 320.057L138.255 320.323L146.335 320.501L153.971 320.59L154.504 325.296C153.527 327.575 151.521 332.222 151.307 332.577C151.094 332.932 149.028 335.744 148.022 337.105L143.227 339.236L138.876 339.947L130.796 341.012C129.464 341.456 126.747 342.415 126.534 342.699C126.321 342.984 125.261 345.067 124.758 346.074L120.585 350.513L117.921 353.177L115.701 356.818L116.766 360.636L119.608 363.655L122.893 366.319L126.179 370.226L129.553 373.333L132.217 377.152L133.46 378.217L137.367 377.862L139.764 376.885L144.559 377.596L146.779 379.993L149.265 384.255L154.06 387.274L159.033 385.676L160.72 381.414L165.071 379.016L169.51 379.283L172.707 381.236L179.988 383.634L185.316 380.259L187.802 373.955L188.484 367.318L193.854 365.049L197.106 359.755L204.519 357.183L209.964 352.796L214.351 347.956L216.772 345.233L220.856 344.174L225.999 344.325H235.378L241.731 339.938L247.328 335.098L252.774 329.349L259.884 324.055L266.925 318.306L266.801 312.983L268.658 307.041L269.153 300.728L270.881 289.151L274.921 286.457L282.137 286.361L285.697 283.956L284.35 277.799L284.542 271.737L283.292 267.6L284.638 263.752L286.947 260.673L284.831 257.98L277.763 251.746L275.033 249.016L271.792 245.945L269.574 243.045L272.047 239.035L272.303 233.576L273.071 227.604L273.498 223.339L269.83 222.998L264.285 223.254L255.84 224.96L251.404 227.69L244.049 230.372L237.8 233.715L232.423 238.874L227.628 244.687L219.489 246.649L215.348 243.451L211.424 238.656L205.829 233.497L202.196 226.448L194.857 224.123L191.514 219.473L188.779 210.751L184.694 210.04L179.455 210.662H175.016L171.02 206.045L168.001 203.825L163.117 202.937L161.075 199.563L165.071 195.212L169.777 192.015L177.235 193.347L186.115 195.034L192.33 191.305L200.5 190.151L209.557 189.085L214.973 185.711L216.838 177.275L216.483 169.373L214.529 161.292L212.309 157.297L209.113 153.478L205.827 147.707L206.271 143.445L204.673 138.472L199.7 137.14L195.349 137.051L191.709 139.271L186.47 140.337L182.208 139.36L180.343 136.164L176.969 132.967C175.726 132.671 173.151 132.043 172.796 131.901C172.44 131.759 170.694 132.02 169.865 132.168L166.136 133.677L162.407 133.145L161.164 129.77L159.92 124.443L157.434 118.937L155.747 113.965L152.543 109.336L149.561 110.972L145.809 114.339L141.96 118.669L137.727 122.132L138.112 128.097L140.036 133.004L140.902 139.546L143.019 145.896L138.401 149.456L133.301 150.61L127.048 150.321C126.503 148.622 125.412 145.107 125.412 144.645C125.412 144.183 124.514 140.348 124.065 138.488L119.736 132.138L115.888 128.963L112.616 125.018L111.173 121.363L108.479 118.091L106.267 115.013L105.112 109.817L108.672 107.316L113.771 104.237L118.1 100.774L118.774 96.9254L116.657 91.9225L114.637 87.3045L112.905 82.6864L114.156 78.357L112.135 74.22L105.978 73.1617L99.051 73.2579L93.6633 74.22L90.3922 72.3921L92.0277 69.3134L91.3543 65.6574L88.0831 65.3689L83.0803 65.9462L75.4796 65.7538Z" fill="#C4C4C4" stroke="#C4C4C4"/>
<path d="M14.5873 21.1958L9.91691 22.6328L9.7373 28.8303L9.91694 37.6772L12.6114 44.5931L15.261 48.3204L20.6949 50.027L22.0421 53.6196L23.1648 59.9965L27.4311 63.5892L32.7752 63.4545L33.808 56.9877L32.371 50.476L28.5987 45.7158L25.2755 39.0694L25.8144 34.5337L28.464 30.9859L33.6284 26.9442L35.8738 22.5881L31.6974 19.1751L29.2723 17.4237L25.545 16.5254L22.581 17.4235L18.7638 19.8035L14.5873 21.1958Z" fill="#C4C4C4" stroke="#C4C4C4"/>
<path d="M215.419 9.01807L216.914 3.1919L211.089 3.66438L204.633 3.90057H195.894L191.249 1.93233L185.502 1.30249L181.644 3.50693L175.188 8.54564L168.732 14.5291L165.11 19.3316L161.725 25.2364L158.182 30.5113L157.001 35.8649L156.292 40.1951L162.512 41.6122L168.811 42.0846L172.826 44.7614L178.652 45.0763L182.903 42.8719L190.462 42.3995L192.981 44.6827L200.381 44.7614L206.758 42.9506L213.687 41.2973L218.804 42.7144L222.819 46.8084L225.575 49.8001L230.771 52.4769L238.486 55.3112L244.549 51.3747L244.076 47.1233L243.683 43.0293L240.455 41.2185L236.439 39.5652L235.573 35.7862L235.416 32.3221L231.322 31.2986L225.496 30.7475L219.749 30.6687L216.678 29.2516L210.931 28.3856L204.318 29.1729L199.909 28.1494L200.224 24.764L204.318 19.2529L209.829 14.0567L215.419 9.01807Z" fill="#C4C4C4" stroke="#C4C4C4"/>
</svg>
