<svg width="1081" height="416" viewBox="0 0 1081 416" fill="none" xmlns="http://www.w3.org/2000/svg">
<g id="jeotang">
<path id="jeotang3" d="M75.4189 380.56L70.9551 376.649L67.6608 378.594L65.5105 381.819L61.1632 385.652L58.2182 389.766L56.7222 395.188L57.7508 400.47L60.3686 404.818L61.5372 410.334L67.0064 414.588L73.5508 415.008L78.1318 412.718L83.0869 410.007L86.546 406.875L86.1062 403.268L81.4399 399.073L78.2563 394.851L77.9449 388.484L77.5642 384.712L75.4189 380.56Z" fill="#C4C4C4" stroke="#C4C4C4"/>
<path id="jeotang2" d="M722.335 120.738L724.524 117.066L729.471 104.757L733.759 101.263L739.476 99.9922L747.1 99.8334L752.341 98.404L751.388 94.7511L749.323 91.5747L742.018 86.6512L739.476 84.4277C739.106 83.5807 738.301 81.7278 738.047 81.0925C737.793 80.4572 739.423 79.8748 740.271 79.6631L742.653 77.2808L743.288 71.0867L740.747 67.275L736.141 62.828L732.488 60.9222L726.135 56.3164L725.024 50.9165L722.641 45.5165L715.336 42.1813L710.73 38.0519L709.3 34.2402L710.889 30.905L721.371 31.3815L730.423 31.8579L735.982 29.4756L743.129 30.2698L749.164 33.9227L752.976 38.2108L757.264 40.9107L762.505 46.1518L765.999 52.5047L771.876 57.1105L780.452 60.6045L789.028 64.0986L793.793 68.5456L804.423 73.7748L811.289 72.431L816.607 67.7696L818.348 64.3754L827.312 64.0273L831.988 52.2737L831.717 44.6978L832.935 38.4746L840.917 41.7213L850.928 44.021L860.668 47.1325L867.162 50.244L871.085 56.4671L877.849 60.9315L885.425 66.3429L891.753 75.2389L894.421 77.8337L897.313 81.7627L903.911 85.1728L910.953 84.3574L919.923 85.0246L925.409 87.6933L931.414 93.7723L932.6 98.2203L936.233 101.334L941.867 105.411L945.944 105.04L952.839 105.04L957.139 106.671L961.846 111.366L965.843 113.701L968.492 114.24L971.187 112.893L975.723 112.713L978.372 114.959L981.112 117.294L985.198 118.731L990.318 117.698L994.18 115.812L998.356 114.6L1002.85 116.082L1005.77 120.348L1015 125.33L1020.07 129.824L1026.29 130.516L1032.51 133.627L1034.13 140.195L1032.97 145.266L1037.35 149.645L1044.73 153.908L1051.41 157.481L1056.37 160.246L1062.82 161.168L1069.04 160.246L1074.23 157.481L1078.38 159.67L1079.99 165.432L1076.76 169.58L1069.73 173.268L1064.09 175.918L1056.02 176.034L1050.32 173.586L1044.49 172.754L1038.02 171.275L1034.79 170.998L1031.55 172.754L1030.63 175.896L1030.45 179.778L1025.64 183.29L1021.57 185.416L1016.77 189.576L1014.36 193.273V200.944L1008.82 204.919L1003.64 209.263L994.506 214.296L989.294 214.818L983.664 213.775L977.931 210.648L971.364 211.273L966.881 215.026L960.106 218.466L952.392 221.802L945.72 223.991L943.218 228.786L941.967 233.79L938.423 237.543L933.628 241.712L931.126 247.863L923.202 251.6L919.118 252.754L916.188 254.353L913.79 259.769L911.126 266.162L905.976 268.382L900.56 266.34L895.854 263.054L893.723 259.858L890.792 257.372L888.484 253.731L885.642 250.268L882.535 247.782L878.983 247.071L874.099 247.249L869.837 248.492L866.285 246.716L862.556 243.697L858.826 241.211H852.966L843.187 243.215L839.356 244.129L836.025 245.897L833.519 247.106L830.366 250.584L828.391 254.769L824.706 255.831L821.434 254.327L818.723 252.5L816.07 251.733L813.564 251.144L811.472 250.436L807.045 250.816L804.886 250.795L801.763 252.409L798.22 254.631L794.867 255.281L791.659 254.526L790.234 252.933L790.674 249.893L790.569 246.414L789.102 243.311L785.475 242.081L780.48 240.963L778.992 240.805L774.421 239.72L771.425 238.847L769.415 238.07L767.879 236.913L766.267 235.282L764.105 234.353L758.373 234.759L755.918 236.423L753.77 238.312L750.765 239.572L747.341 239.879L744.705 236.993L743.883 235.349L743.041 232.802L741.808 229.884L739.362 225.848L737.68 223.639L735.496 221.48L732.407 220.525L728.164 219.17L726.923 217.032L728.507 212.604L731.351 210.289L732.814 207.364L733.748 203.464L734.032 199.482L735.129 195.42L738.585 191.994L743.545 190.42L747.694 187.75L749.554 184.173L750.412 180.644L752.434 174.732L754.571 172.816L757.347 171.567L759.567 169.375L760.483 164.323L758.596 153.749L758.568 150.862L756.736 147.976L751.355 144.462L748.496 144.215L743.518 144.921L740.128 144.992L738.504 142.203L737.763 137.225L735.962 132.988L731.726 128.328L726.677 124.833L722.335 120.738Z" fill="#C4C4C4" stroke="#C4C4C4"/>
<path id="jeotang1" d="M2.72461 265.767L0.685059 256.734L7.00953 251.648L11.6599 241.857L14.5971 239.532L20.4713 240.756L27.5693 239.532L35.8911 239.288L37.6044 234.025L37.3596 228.273L36.9925 221.91L41.031 219.095L48.1336 214.928L50.7975 209.778L53.8165 204.539L60.2985 198.856L64.4718 192.818L68.8227 188.467L78.6789 187.846L90.3633 185.5L98.7808 181.291L104.289 177.206L108.065 172.874L111.902 170.274L119.639 170.15L127.933 167.613L134.246 164.704L137.712 160.804L138.826 154.368L137.279 150.097L139.558 146.142L142.054 143.722L144.323 140.621L144.247 136.385L142.886 132.679L141.222 129.275L142.054 125.796L148.634 122.771L159.857 116.968L164.625 113.618L170.681 111.299L180.667 110.01L192.135 108.142L203.409 104.341L208.37 100.668L214.684 101.184L222.737 101.635L226.861 96.1585L227.455 88.3832L233.571 78.7946L243.821 72.1819L258.204 72.0165L266.801 68.8755L271.76 63.0893L277.381 58.295L283.167 54.4927L289.78 54.3274L291.268 50.6903L294.574 44.7388L299.038 38.7874L302.344 33.6625L308.13 30.852L315.735 32.1746L322.183 33.8278L329.056 33.6065L334.37 35.3778L337.58 40.8024L342.119 43.5701L349.758 47.8876L353.19 52.98L358.061 59.7331L364.15 65.8219L372.01 69.6966L379.316 74.1248L385.184 75.564L390.498 73.2392L396.808 72.9071L407.546 73.2392L415.518 71.238L423.482 68.8057L429.28 62.5938L441.558 62.5103L451.263 60.7992L460.682 58.6949L465.171 59.3037L471.153 60.5001L479.827 57.8082L487.305 54.3686L490.445 48.3866L491.642 41.956L495.38 35.6749L500.166 30.1416L501.961 25.2064L503.456 14.8875L510.634 11.1488L517.514 6.96138L524.692 1.42798L532.469 9.20453L538.75 14.4389L551.91 22.365L555.798 26.4029L560.584 30.2911L567.762 31.4875L574.492 30.291L581.072 33.5812L585.11 36.7218L594.98 38.3668L605.449 36.4227L617.114 35.6748L623.993 40.1613L630.872 46.7414L637.901 54.2188L645.827 61.8459L648.818 71.4171L660.184 81.4368L666.017 90.2602L672.896 101.177L674.746 116.681L677.444 126.603L684.319 129.388L685.886 135.045L689.019 143.487L697.722 146.533C699.753 146.736 703.936 147.177 704.424 147.317C704.911 147.456 706.657 148.593 707.47 149.144L709.297 152.364L710.168 155.933L708.34 159.153L705.468 160.719L700.246 162.199L696.156 164.375L692.674 166.986L688.323 167.943L682.056 166.463L671.874 164.81L669.089 164.375L664.911 163.94L661.604 165.506L657.339 167.421L654.641 168.465L650.29 169.858L648.375 172.991L648.897 177.168L649.333 181.259L648.201 185.175L645.068 186.916L638.018 186.307L630.621 185.175L624.18 183.609L619.307 180.998L613.388 177.516L607.992 174.819L600.595 171.772L592.373 169.444L587.945 168.758L582.989 168.073L579.457 166.913L576.926 162.379L576.61 158.583L572.708 156.474L567.173 155.683L560.899 155.261L553.676 156.105L548.667 156.79L541.322 165.507L533.11 177.163L529.015 182.793L522.617 185.011L518.011 188.935L516.561 194.565L514.94 198.319L518.693 203.266L522.361 207.361L528.674 209.238L534.475 212.821L534.901 219.645L535.839 225.36L536.576 233.445L537.192 236.218L539.085 236.746L543.707 236.834L551.63 234.633L557.044 234.413L562.326 234.501L565.011 236.79L566.947 241.148L568.444 245.065L568.092 249.291L566.331 254.089L567.212 258.446L569.5 263.552L578.06 274.133L583.377 278.799L581.808 282.204L579.858 289.357L576.036 294.135L569.524 297.619L566.039 302.475L564.554 308.53L559.699 315.499L555.243 322.582L543.343 330.773L539.931 334.559L533.573 337.878L522.588 337.925L513.894 338.346L507.688 342.325L503.017 343.882L495.378 343.298L489.004 341.595L483.213 336.243L468.275 325.003L463.312 321.207L448.973 313.234L440.489 312.139L433.031 312.071L428.652 310.566L426.463 306.666L423.521 300.508L420.031 296.745L414.558 295.24L408.182 295.609L402.783 296.884L397.758 298.646L393.109 299.508L388.348 295.196L384.298 290.21L382.386 285.148L377.812 279.262L373.763 277.724L369.488 276.825L365.248 273.46L365.377 269.272L364.475 264.247L361.06 259.608L357.388 257.224L354.038 255.163C352.642 255.291 349.734 255.536 349.27 255.485C348.807 255.433 345.684 257.611 344.181 258.706L338.898 262.636L333.422 263.796L326.85 263.28L322.211 262.572L318.41 264.247L312.591 269.638L308.43 270.494L305.371 271.351L299.252 270.739L293.989 268.659L289.461 267.557L285.79 269.882L280.16 270.984H273.797L269.391 269.393L267.311 266.089L269.024 258.746L270.982 252.137L273.674 244.183L275.388 239.288L271.472 236.718L264.251 237.085L258.132 240.144L247.485 241.123L243.079 234.637L238.184 230.476L231.086 230.843L223.988 229.252L215.177 227.172L207.345 226.805L197.799 226.071L188.865 226.438L180.666 230.966L170.019 238.676L154.966 245.651L147.379 252.26L140.77 256.91L136.12 259.97L129.756 262.54L122.658 262.295L114.581 262.785L109.196 266.946L99.406 267.435L94.2661 271.351L95.7346 279.428L95.2451 291.666L95.4899 300.233L93.5318 307.331L90.8395 311.614L91.4514 318.712L89.3588 328.548L85.6995 333.765L80.682 332.052L78.6015 327.768L75.7868 322.628L67.2202 321.037L59.6327 324.464L51.1885 329.114C49.0265 329.93 44.629 331.66 44.3353 332.052C44.0415 332.443 40.052 331.154 38.0939 330.461C37.482 328.951 36.2093 325.786 36.0135 325.198C35.7687 324.464 34.7897 320.67 34.3001 319.814C33.9085 319.128 31.8526 317.08 30.8735 316.142L27.9364 311.247L25.7336 304.761L25.2441 297.54L19.9758 293.509L16.1876 290.245L15.4882 285.233C14.9637 283.057 13.8796 278.659 13.7398 278.473C13.5999 278.286 11.5445 274.354 10.5343 272.411L4.35658 268.798L2.72461 265.767Z" fill="#C4C4C4" stroke="#C4C4C4"/>
</g>
</svg>
