<svg width="884" height="742" viewBox="0 0 884 742" fill="none" xmlns="http://www.w3.org/2000/svg">
<path id="jwacha" d="M158.148 140.9L157.26 145.872L157.977 147.03L160.093 152.418L162.21 157.613L162.017 164.059L161.44 169.158L162.691 175.027L166.732 179.26L171.381 192.399L169.923 199.042L166.034 204.228L162.145 208.765L161.983 213.95L158.742 221.728L155.988 226.913L151.613 234.367L143.673 238.904L136.219 241.658L127.793 244.251L122.122 248.788L115.965 254.297L108.673 258.186L101.543 263.695L92.469 267.422L86.7489 280.081L88.6349 285.456L89.1064 290.831L86.6605 298.612L84.7543 301.635L82.4537 305.316L83.4397 309.523L87.9094 314.913L92.9707 320.435L100.267 325.364L105.92 327.205L109.995 329.9L118.718 339.409L125.754 341.754L132.643 343.806L138.653 346.152L140.119 350.696L139.239 357.878L138.946 363.155L139.533 370.191L139.679 376.934L135.282 379.865L129.858 380.891L125.168 384.849L119.891 388.66L113.441 389.246C110.751 388.622 105.343 387.372 105.237 387.372C105.131 387.372 102.589 387.398 101.331 387.41L97.3486 388.055L92.8734 390.558L82.4523 395.154L75.8139 396.693L68.983 396.597L62.056 396.019L57.6304 393.71L52.1464 393.999L47.0474 395.442L44.0649 400.06L41.6596 405.352L38.1961 407.276L32.9046 408.911L27.4207 410.643L22.9951 414.973L19.724 419.687L13.759 421.226L9.33336 421.707L2.69493 423.92L1.05957 427.384L3.36836 434.311L3.46481 438.159L5.67745 442.296L280.923 583.317L286.052 584.036L290.233 583.032L294.163 578.099L293.661 565.558L293.159 559.956L293.745 552.765L296.086 548L297.089 540.893L297.256 534.371L297.842 529.354L299.765 524.338L302.44 520.492L307.457 519.572L318.326 519.99L323.594 517.064L327.189 512.298L335.132 507.616L340.818 504.689L347.924 503.602L352.774 499.505L355.282 494.656L358.71 488.887L363.811 487.131L367.824 488.803L375.516 489.806L385.967 489.305L394.579 487.716L403.609 485.124L409.462 484.623L416.318 487.716L419.412 492.9L418.492 501.094L413.726 510.207L412.89 520.575L414.312 530.608L414.479 543.819L414.312 551.678L415.863 563.43L424.253 571.033L431.07 578.637L436.313 582.569L442.605 580.996L450.995 578.637L456.763 580.21L462.531 585.453L467.25 590.172L473.805 592.27H481.408L481.933 668.827L485.443 671.978L489.938 675.099L494.433 679.22L498.553 686.961L502.299 691.206L511.663 694.702L516.033 698.198L520.278 705.44L525.398 710.309L533.388 715.678L538.882 720.048L543.752 722.92L549.495 724.668L556.612 723.544L560.233 719.674L565.602 716.927L570.846 716.427L583.082 717.676H595.817L607.304 717.801L620.04 716.427L628.78 713.93L635.772 710.684L641.64 705.69L645.511 701.819L650.755 701.07L660.494 702.193L668.281 700.126L671.224 700.605L675.329 700.126L679.023 701.7L681.487 705.942L680.939 712.51L680.597 717.505L681.144 723.799L683.676 723.184L686.823 721.815L690.723 720.584L694.76 719.626L700.713 718.805L704.613 717.573L707.486 720.378L707.76 724.894L708.034 730.847L708.239 739.125L712.686 740.768L718.639 740.494L726.37 740.289L732.255 737.483L736.086 731.394L738.96 726.741L743.407 723.047L749.633 721.541L748.941 717.259L748.185 713.675L744.601 710.968L740.539 708.101L735.124 705.353L729.749 704.278L727.346 700.663L727.882 695.894L728.271 691.126L727.152 686.941L722.967 686.309L719.22 683.389L716.35 678.913L713.138 676.577L707.688 676.674L705.299 674.998L708.674 668.25L709.206 661.856L710.627 658.216L705.033 654.486L700.061 654.398L696.42 653.865L692.335 650.402L689.938 648.093L685.765 647.56L678.661 647.205L674.665 646.761L673.511 642.322L671.202 638.148L668.894 637.083L663.211 636.372L656.64 635.662L651.756 635.396L650.602 632.288L648.205 626.96L644.031 624.474L640.657 622.076L640.479 618.436L645.363 617.548L655.131 618.436L663.388 618.88L668.272 613.73L674.044 611.332L685.321 612.575L694.378 613.996L698.551 608.668L707.253 608.402L715.908 612.791L720.899 618.976L728.82 621.58L734.463 618.216L742.058 617.565L748.569 621.797L752.367 625.595L753.56 631.563L754.428 638.941L755.513 650.009L753.56 660.318L750.522 669.215L749.22 676.377L752.475 682.128L762.241 684.623L771.573 689.723L778.517 694.932L786.655 696.885L793.491 695.583L802.063 693.087L809.984 695.04L819.945 690.951L826.045 685.913L829.227 677.426L835.459 671.327L840.233 664.962L840.365 656.476L837.846 650.509L835.99 645.338L841.161 638.973L847.526 633.006L849.117 616.564L853.93 612.14L862.828 608.993L865.541 603.134L869.121 598.359L873.896 593.151L875.632 589.245L872.377 586.424L866.734 580.998L862.821 574.927L855.184 572.263L846.749 570.664L842.753 574.571L837.426 575.015L836.005 571.73L832.631 567.29L827.481 564.804L826.593 561.252L830.855 549.62L832.808 536.923L841.321 517.285L845.753 502.971L852.293 497.376L861.448 496.068L868.86 484.732L879.178 483.86L883.195 477.468L875.902 462.219L876.565 454.263L868.211 447.633L863.172 439.147L855.084 435.169L854.156 431.323L856.808 419.389L847.128 407.588L841.161 413.157L836.52 426.682L816.566 441.365L814.319 450.73L811.447 454.725L808.201 456.223L798.836 467.71L797.088 475.576L801.084 494.055L781.107 517.653L769.745 510.037L754.012 508.913L744.648 484.566L752.581 470.864L754.819 447.558L752.581 434.506L750.903 419.217L744.191 413.623L743.818 408.403L746.987 388.825L747.368 377.192L757.468 372.251L760.302 364.186L764.437 355.96L757.244 336.602L757.531 329.041L771.388 318.176L779.969 314.948L788.078 306.682L803.352 299.124L804.983 288.939L807.003 284.417L811.333 283.166L816.432 284.032L827.304 265.271L790.648 227.75L784.683 227.172L779.391 220.245L777.371 205.814L771.502 196.77L774.1 178.683L767.654 173.199L759.266 172.889L750.579 165.596L743.859 163.793L740.909 150.598L723.044 139.125L725.175 124.62L707.104 118.39L695.7 121.308L691.987 116.932L685.623 115.871L680.054 118.921L663.346 156.181L668.12 162.281L640.539 192.646L635.235 193.574L623.832 188.137L610.01 185.157L608.39 178.503L602.504 168.949L604.38 155.983L592.694 152.144L582.457 163.234L573.33 173.641L561.387 195.393L535.787 211.106L520.689 212.061L509.045 214.753L494.153 214.259L488.711 212.207L483.655 213.971L482.715 221.965L470.37 230.665L469.664 241.952L452.97 247.948L435.922 224.669L426.399 222.671L407.353 225.492L403.695 218.335L398.138 213.347L400.664 206.653L409.55 193.386L417.035 192.516L426.173 182.072L435.224 178.33L440.62 165.884L445.822 149.535L439.844 134.368L440.398 117.43L435.305 108.684L433.841 88.5764L434.115 72.5519L430.274 68.9299L421.823 82.43L420.002 96.5732L400.001 106.122L393.758 106.181L384.601 110.7L362.779 96.4892L351.429 90.3242L345.569 80.7754L336.889 76.5436L336.997 54.5165L320.287 46.5954L314.536 39.5423L305.638 27.8234L300.43 8.07496L293.703 1.23901L284.805 2.32404L276.992 9.16017L263.863 25.0023L245.525 30.2108L221.979 33.7917L205.671 44.3267L192.955 53.4094L190.412 65.0354L179.585 79.1318L185.497 95.2592L173.776 113.728L172.355 132.02L158.148 140.9Z" fill="#C4C4C4" stroke="#C4C4C4"/>
</svg>
