<svg width="518" height="485" viewBox="0 0 518 485" fill="none" xmlns="http://www.w3.org/2000/svg">
<path d="M23.7723 122.356L17.1932 129.666L11.264 138.148L4.72644 147.954L3.41893 163.644L7.01458 171.489L1.78454 180.642L0.803711 191.756L19.7626 197.966L31.2033 208.753L42.644 225.097L52.7772 245.69L56.046 261.38L62.2566 275.436L68.7942 283.935L67.4113 294.455L77.3032 303.586L83.9613 310.814L101.082 310.434L113.257 305.868L119.344 307.2L129.616 307.771L137.606 310.244L139.889 316.521L139.508 326.984L139.128 334.593L134.943 342.773L126.382 347.719L121.817 356.469L114.588 362.557L107.93 369.025L100.321 375.112L98.0382 384.053V391.091L103.555 399.842L105.457 408.402L107.169 420.006L118.012 422.859L129.658 431.062L128.263 448.497L135.934 452.681L141.978 456.865L147.093 462.445L156.159 470.348L168.247 479.414L178.94 484.296L186.146 473.603L192.191 471.278L205.673 468.024L216.599 462.677L239.148 462.909L260.302 467.326L267.741 472.673L279.364 474.068L292.615 477.787L306.097 478.252L313.769 472.905V458.26L316.326 449.427L314.234 443.383L316.791 435.479L337.015 429.9L344.919 417.812L359.564 419.206L368.863 421.531L373.744 428.04L377.231 440.593L387.46 438.268L395.596 438.733L403.035 430.597L399.083 415.022L402.105 400.609V384.104L408.846 368.297L415.123 354.582L426.513 342.726V323.896L431.395 311.576L426.945 296.357L433.983 276.954L421.618 267.442L418.384 253.555L410.965 238.908L410.585 218.934L414.867 211.774L430.278 205.858L440.708 190.136L459.077 187.178L474.799 179.083L486.474 171.767L481.762 166.017L482.491 157.27L505.854 141.731L513.638 136.912L516.974 127.349L516.678 119.936L513.615 110.923L513.524 93.8014L494.047 86.3728L482.27 83.8362L472.123 73.871L465.6 65.3553L453.461 62.0939L442.228 58.4702L436.181 52.6323L436.52 46.3072L436.181 38.4009L434.261 32.8664L429.856 26.3154L426.581 21.2328L421.385 16.9408L415.173 16.376L408.018 15.7255L401.086 12.2132L393.599 5.92817L386.76 1.3068L380.105 1.12183L373.265 1.58387L368.274 3.15506L364.023 9.9023L358.292 13.2297L352.839 15.5403L350.159 20.5314L343.874 22.7497L337.219 22.9346L332.297 24.5849L328.191 31.6953L322.083 36.7026L317.376 37.4035L310.466 38.0043L305.659 43.7126L296.245 49.1205L286.631 53.5269L276.616 57.1321L269.206 58.0334L265 57.3324L263.497 54.1278L262.095 48.9202L259.792 44.9144L255.987 43.6124L247.474 44.7141L238.06 45.7156L232.653 48.9203L231.451 53.9277L232.252 60.0367L232.653 67.1471L230.647 75.0238L223.703 75.9376L220.413 81.2374L211.641 83.2477L203.6 80.8719L195.376 77.0341H188.98L174.725 74.6583L166.867 70.6378L157.912 69.7239L149.506 71.0031L140.002 73.7444L127.941 75.5719L121.91 73.1961L114.052 71.3685L105.828 71.9168L96.142 72.6477L90.8422 76.4855L85.3596 79.9578L80.2426 79.5923L75.6738 82.5163L73.8463 89.4609L72.3842 97.1365L68.3637 100.426L62.5156 101.157L58.3123 97.6847L53.378 95.309L47.1645 97.1365L42.7784 101.157L42.5957 107.919L41.3164 116.691L23.7723 122.356Z" fill="#C4C4C4" stroke="#C4C4C4"/>
</svg>
