<svg width="542" height="390" viewBox="0 0 542 390" fill="none" xmlns="http://www.w3.org/2000/svg">
<path d="M193.571 10.6381L189.533 7.30221L181.371 4.4253L175.623 3.44204L168.891 2.76132L164.278 1.39989L160.042 0.643555L155.655 2.0049L148.319 5.63543L143.1 9.03901L136.141 12.2157L128.729 14.3335L120.409 15.468L113.905 17.2833L106.031 18.6161L101.594 17.2297L100.115 13.3478L97.1578 13.2553H90.8727L84.6801 18.4313L80.8906 24.9012L76.0843 32.6651L71.5554 38.7653L67.1189 43.1094L60.002 48.6551L54.6412 52.6294L52.5153 60.9479L47.0621 65.3844L42.1635 67.0481L38.0042 73.0559L34.0298 81.7441L26.312 93.8156L26.9885 102.339L30.9117 108.02L35.2408 109.238L39.164 111.538L39.7052 118.167L37.9465 124.255L37.2701 130.207L35.7819 135.348L24.0924 143.505L22.9658 149.983L19.8678 158.573L13.1085 165.754L5.50422 174.204L1.56128 180.4L2.12141 198.191L1.39551 209.805L1.63771 219.968L5.75123 223.84L9.38106 226.502L14.2206 229.163L17.8501 234.003L23.8993 237.874L26.8029 238.358L33.5782 234.971L40.3535 234.487L42.5313 239.81L43.7411 250.941L43.2572 262.072L40.1115 271.509L40.1115 277.8L46.8868 284.818L65.9156 298.688L70.7035 304.884L74.7873 315.445V325.021L71.2665 328.823L74.2238 336.991L82.2507 348.538L91.5449 360.085L99.5716 366.14L95.2725 376.34L107.639 383.142L122.067 380.668L134.846 379.019L145.152 384.584L154.221 389.325L164.527 386.439L171.535 374.485L176.893 362.53L187.199 357.996L199.566 353.049L203.07 345.629L206.574 340.27L214.818 339.033L224.505 337.59L233.368 333.674L243.262 329.552L247.796 323.781L251.3 317.597L257.278 312.651L262.637 308.528L265.552 298.729L266.034 294.633L267.158 290.777L265.472 287.966L261.455 285.315L256.877 283.066L252.459 279.933L251.415 275.114L254.913 267.99L269.048 264.358L281.808 256.604L291.329 246.69L294.765 241.586L297.317 232.752L300.172 224.67L307.722 221.136L315.433 217.28L320.815 214.469L323.225 209.81L327.402 209.328L332.462 208.927L337.442 206.276L339.209 200.814L342.663 197.28L347.403 197.039L355.596 197.521L372.309 196.041L378.297 190.838L377.512 182.888L374.469 177.685L373.193 171.501L379.573 167.379L389.291 162.078L393.708 155.796L398.714 149.907L407.352 149.023L417.953 153.244L429.732 155.207L442.59 151.87L451.13 145.98L461.499 139.189L471.575 133.311L487.888 137.27L504.081 137.51H517.755L524.833 136.43L528.311 133.191L532.029 128.993L535.988 126.594L540.666 122.756V118.318L533.949 112.32L526.752 108.841L521.834 106.323L524.091 101.83L525.696 99.1077L527.651 93.6628L526.953 89.265L524.23 85.8445L520.287 80.0014L519.103 76.2801L517.411 72.0515L514.536 69.768L509.969 70.4446L502.104 70.9098L494.474 69.3944L487.906 68.1315L482.223 66.7422L479.066 65.2267L472.688 64.4689L464.984 64.2795L457.911 63.5217L452.67 61.9431L446.924 59.796L441.872 59.0383L436.82 61.6273L432.589 66.8054L428.485 72.4887L422.991 75.8986L417.56 78.5508L410.614 77.9193L404.505 77.1718L398.812 79.0368L394.689 81.4907L390.37 85.7115L384.186 88.3618L376.726 87.3802L367.696 87.7728L359.647 88.5581L355.095 88.0638L355.797 84.5524L357.552 79.2854L357.904 73.1405L348.072 72.2626L342.278 73.1405L335.958 72.9649L329.11 71.5604L324.897 68.4001L315.592 66.9956L307.867 65.7666L301.371 69.278L295.752 73.6672L291.539 79.4609L283.111 80.6899L272.226 78.232L264.852 74.3695L252.562 72.0871L243.784 69.4535L242.028 64.0109L236.761 57.866L228.51 52.599L220.258 51.1944L209.899 49.7899L204.457 48.5609L201.999 43.4694L200.068 38.9046L195.503 34.691L190.06 30.1262L187.251 26.6148L189.006 22.7523L191.464 19.9432L195.151 15.7296L193.571 10.6381Z" fill="#C4C4C4" stroke="#C4C4C4"/>
</svg>
