<svg width="900" height="700" viewBox="0 0 900 700" fill="none" xmlns="http://www.w3.org/2000/svg">
<rect width="900" height="700" fill="white"/>
<path d="M227.379 253.273V326H218.572V253.273H227.379ZM267.623 271.455V278.557H239.355V271.455H267.623ZM247.594 258.386H255.975V310.375C255.975 312.742 256.318 314.518 257.005 315.702C257.715 316.862 258.614 317.643 259.703 318.045C260.816 318.424 261.988 318.614 263.219 318.614C264.142 318.614 264.9 318.566 265.492 318.472C266.084 318.353 266.557 318.259 266.912 318.188L268.617 325.716C268.049 325.929 267.256 326.142 266.238 326.355C265.22 326.592 263.929 326.71 262.367 326.71C259.999 326.71 257.679 326.201 255.407 325.183C253.158 324.165 251.287 322.615 249.796 320.531C248.328 318.448 247.594 315.82 247.594 312.648V258.386ZM290.447 253.273V259.665C290.447 261.606 290.092 263.678 289.382 265.879C288.696 268.057 287.678 270.176 286.328 272.236C285.002 274.272 283.393 276.047 281.499 277.562L276.953 273.869C278.445 271.739 279.735 269.525 280.824 267.229C281.937 264.909 282.493 262.435 282.493 259.807V253.273H290.447ZM332.44 283.67L324.911 285.801C324.438 284.546 323.739 283.327 322.816 282.143C321.916 280.936 320.685 279.942 319.123 279.161C317.56 278.379 315.56 277.989 313.121 277.989C309.783 277.989 307.002 278.758 304.776 280.297C302.575 281.812 301.474 283.741 301.474 286.085C301.474 288.169 302.231 289.814 303.746 291.021C305.262 292.229 307.629 293.235 310.849 294.04L318.945 296.028C323.822 297.212 327.456 299.023 329.847 301.462C332.238 303.876 333.434 306.99 333.434 310.801C333.434 313.926 332.534 316.72 330.735 319.182C328.96 321.644 326.474 323.585 323.278 325.006C320.082 326.426 316.365 327.136 312.127 327.136C306.564 327.136 301.959 325.929 298.313 323.514C294.667 321.099 292.359 317.572 291.388 312.932L299.343 310.943C300.101 313.879 301.533 316.08 303.64 317.548C305.771 319.016 308.552 319.75 311.985 319.75C315.891 319.75 318.993 318.921 321.289 317.264C323.609 315.583 324.769 313.571 324.769 311.227C324.769 309.333 324.106 307.747 322.781 306.469C321.455 305.167 319.419 304.196 316.673 303.557L307.582 301.426C302.586 300.242 298.917 298.408 296.573 295.922C294.253 293.412 293.093 290.276 293.093 286.511C293.093 283.434 293.957 280.711 295.685 278.344C297.437 275.976 299.817 274.118 302.823 272.768C305.853 271.419 309.286 270.744 313.121 270.744C318.519 270.744 322.757 271.928 325.835 274.295C328.936 276.663 331.138 279.788 332.44 283.67ZM382.555 293.188V326H374.174V253.273H382.555V279.977H383.265C384.544 277.16 386.461 274.923 389.018 273.266C391.599 271.585 395.031 270.744 399.316 270.744C403.033 270.744 406.288 271.49 409.082 272.982C411.876 274.449 414.042 276.71 415.581 279.764C417.143 282.795 417.924 286.653 417.924 291.341V326H409.544V291.909C409.544 287.577 408.419 284.227 406.17 281.859C403.945 279.468 400.855 278.273 396.902 278.273C394.155 278.273 391.693 278.853 389.515 280.013C387.361 281.173 385.656 282.866 384.402 285.091C383.171 287.316 382.555 290.015 382.555 293.188ZM433.256 326V271.455H441.637V326H433.256ZM437.518 262.364C435.884 262.364 434.476 261.807 433.292 260.695C432.132 259.582 431.552 258.244 431.552 256.682C431.552 255.119 432.132 253.782 433.292 252.669C434.476 251.556 435.884 251 437.518 251C439.151 251 440.548 251.556 441.708 252.669C442.892 253.782 443.484 255.119 443.484 256.682C443.484 258.244 442.892 259.582 441.708 260.695C440.548 261.807 439.151 262.364 437.518 262.364ZM477.583 327.136C473.038 327.136 469.025 325.988 465.545 323.692C462.065 321.372 459.342 318.105 457.377 313.891C455.413 309.653 454.43 304.646 454.43 298.869C454.43 293.14 455.413 288.169 457.377 283.955C459.342 279.741 462.077 276.485 465.581 274.189C469.084 271.893 473.133 270.744 477.725 270.744C481.277 270.744 484.082 271.336 486.142 272.52C488.225 273.68 489.811 275.006 490.9 276.497C492.013 277.965 492.877 279.172 493.493 280.119H494.203V253.273H502.583V326H494.487V317.619H493.493C492.877 318.614 492.001 319.868 490.865 321.384C489.728 322.875 488.107 324.213 486 325.396C483.893 326.556 481.087 327.136 477.583 327.136ZM478.72 319.608C482.082 319.608 484.922 318.732 487.243 316.98C489.563 315.205 491.326 312.754 492.534 309.629C493.741 306.481 494.345 302.847 494.345 298.727C494.345 294.655 493.753 291.092 492.569 288.038C491.386 284.961 489.634 282.57 487.314 280.865C484.993 279.137 482.129 278.273 478.72 278.273C475.169 278.273 472.209 279.184 469.842 281.007C467.498 282.806 465.734 285.257 464.551 288.358C463.391 291.436 462.811 294.892 462.811 298.727C462.811 302.61 463.403 306.137 464.586 309.31C465.794 312.458 467.569 314.968 469.913 316.838C472.28 318.685 475.216 319.608 478.72 319.608ZM539.693 327.136C535.147 327.136 531.135 325.988 527.654 323.692C524.174 321.372 521.452 318.105 519.487 313.891C517.522 309.653 516.539 304.646 516.539 298.869C516.539 293.14 517.522 288.169 519.487 283.955C521.452 279.741 524.186 276.485 527.69 274.189C531.194 271.893 535.242 270.744 539.835 270.744C543.386 270.744 546.191 271.336 548.251 272.52C550.334 273.68 551.921 275.006 553.01 276.497C554.122 277.965 554.986 279.172 555.602 280.119H556.312V253.273H564.693V326H556.596V317.619H555.602C554.986 318.614 554.11 319.868 552.974 321.384C551.838 322.875 550.216 324.213 548.109 325.396C546.002 326.556 543.197 327.136 539.693 327.136ZM540.829 319.608C544.191 319.608 547.032 318.732 549.352 316.98C551.672 315.205 553.436 312.754 554.643 309.629C555.85 306.481 556.454 302.847 556.454 298.727C556.454 294.655 555.862 291.092 554.679 288.038C553.495 284.961 551.743 282.57 549.423 280.865C547.103 279.137 544.238 278.273 540.829 278.273C537.278 278.273 534.319 279.184 531.951 281.007C529.608 282.806 527.844 285.257 526.66 288.358C525.5 291.436 524.92 294.892 524.92 298.727C524.92 302.61 525.512 306.137 526.696 309.31C527.903 312.458 529.679 314.968 532.022 316.838C534.39 318.685 537.325 319.608 540.829 319.608ZM604.075 327.136C598.819 327.136 594.286 325.976 590.474 323.656C586.686 321.312 583.762 318.045 581.703 313.855C579.667 309.641 578.649 304.741 578.649 299.153C578.649 293.566 579.667 288.642 581.703 284.381C583.762 280.096 586.627 276.758 590.297 274.366C593.99 271.952 598.298 270.744 603.223 270.744C606.064 270.744 608.869 271.218 611.639 272.165C614.409 273.112 616.93 274.651 619.203 276.781C621.475 278.888 623.287 281.682 624.636 285.162C625.985 288.642 626.66 292.927 626.66 298.017V301.568H584.615V294.324H618.137C618.137 291.246 617.522 288.5 616.291 286.085C615.083 283.67 613.355 281.765 611.106 280.368C608.881 278.971 606.253 278.273 603.223 278.273C599.885 278.273 596.996 279.101 594.558 280.759C592.143 282.392 590.285 284.523 588.983 287.151C587.681 289.778 587.029 292.596 587.029 295.602V300.432C587.029 304.551 587.74 308.043 589.16 310.908C590.604 313.749 592.605 315.915 595.162 317.406C597.718 318.874 600.69 319.608 604.075 319.608C606.277 319.608 608.265 319.3 610.041 318.685C611.84 318.045 613.391 317.098 614.693 315.844C615.995 314.565 617.001 312.979 617.711 311.085L625.808 313.358C624.956 316.104 623.523 318.519 621.511 320.602C619.499 322.662 617.013 324.272 614.054 325.432C611.094 326.568 607.768 327.136 604.075 327.136ZM647.789 293.188V326H639.409V271.455H647.505V279.977H648.216C649.494 277.207 651.435 274.982 654.039 273.301C656.644 271.597 660.005 270.744 664.125 270.744C667.818 270.744 671.049 271.502 673.819 273.017C676.589 274.509 678.743 276.781 680.282 279.835C681.821 282.866 682.591 286.701 682.591 291.341V326H674.21V291.909C674.21 287.624 673.097 284.286 670.872 281.895C668.646 279.48 665.592 278.273 661.71 278.273C659.035 278.273 656.644 278.853 654.537 280.013C652.453 281.173 650.808 282.866 649.6 285.091C648.393 287.316 647.789 290.015 647.789 293.188ZM30.5043 414.188V447H22.1236V374.273H30.5043V400.977H31.2145C32.4929 398.16 34.4105 395.923 36.9673 394.266C39.5478 392.585 42.9806 391.744 47.2656 391.744C50.9825 391.744 54.2377 392.49 57.0312 393.982C59.8248 395.449 61.991 397.71 63.5298 400.764C65.0923 403.795 65.8736 407.653 65.8736 412.341V447H57.4929V412.909C57.4929 408.577 56.3684 405.227 54.1193 402.859C51.8939 400.468 48.8045 399.273 44.8509 399.273C42.1046 399.273 39.6425 399.853 37.4645 401.013C35.3101 402.173 33.6056 403.866 32.3509 406.091C31.1198 408.316 30.5043 411.015 30.5043 414.188ZM104.075 448.136C98.8192 448.136 94.2856 446.976 90.4741 444.656C86.6862 442.312 83.7624 439.045 81.7028 434.855C79.6668 430.641 78.6488 425.741 78.6488 420.153C78.6488 414.566 79.6668 409.642 81.7028 405.381C83.7624 401.096 86.627 397.758 90.2965 395.366C93.9897 392.952 98.2984 391.744 103.223 391.744C106.064 391.744 108.869 392.218 111.639 393.165C114.409 394.112 116.93 395.651 119.203 397.781C121.475 399.888 123.287 402.682 124.636 406.162C125.985 409.642 126.66 413.927 126.66 419.017V422.568H84.6147V415.324H118.137C118.137 412.246 117.522 409.5 116.291 407.085C115.083 404.67 113.355 402.765 111.106 401.368C108.881 399.971 106.253 399.273 103.223 399.273C99.8846 399.273 96.9963 400.101 94.5579 401.759C92.1431 403.392 90.2847 405.523 88.9826 408.151C87.6805 410.778 87.0295 413.596 87.0295 416.602V421.432C87.0295 425.551 87.7397 429.043 89.1602 431.908C90.6043 434.749 92.6048 436.915 95.1616 438.406C97.7184 439.874 100.69 440.608 104.075 440.608C106.277 440.608 108.265 440.3 110.041 439.685C111.84 439.045 113.391 438.098 114.693 436.844C115.995 435.565 117.001 433.979 117.711 432.085L125.808 434.358C124.956 437.104 123.523 439.519 121.511 441.602C119.499 443.662 117.013 445.272 114.054 446.432C111.094 447.568 107.768 448.136 104.075 448.136ZM139.409 447V392.455H147.505V400.693H148.074C149.068 397.994 150.867 395.804 153.471 394.124C156.075 392.443 159.011 391.602 162.278 391.602C162.894 391.602 163.663 391.614 164.586 391.638C165.51 391.661 166.208 391.697 166.681 391.744V400.267C166.397 400.196 165.746 400.089 164.728 399.947C163.734 399.782 162.681 399.699 161.568 399.699C158.916 399.699 156.549 400.255 154.466 401.368C152.406 402.457 150.772 403.972 149.565 405.913C148.381 407.831 147.789 410.021 147.789 412.483V447H139.409ZM197.825 448.136C192.569 448.136 188.036 446.976 184.224 444.656C180.436 442.312 177.512 439.045 175.453 434.855C173.417 430.641 172.399 425.741 172.399 420.153C172.399 414.566 173.417 409.642 175.453 405.381C177.512 401.096 180.377 397.758 184.047 395.366C187.74 392.952 192.048 391.744 196.973 391.744C199.814 391.744 202.619 392.218 205.389 393.165C208.159 394.112 210.68 395.651 212.953 397.781C215.225 399.888 217.037 402.682 218.386 406.162C219.735 409.642 220.41 413.927 220.41 419.017V422.568H178.365V415.324H211.887C211.887 412.246 211.272 409.5 210.041 407.085C208.833 404.67 207.105 402.765 204.856 401.368C202.631 399.971 200.003 399.273 196.973 399.273C193.635 399.273 190.746 400.101 188.308 401.759C185.893 403.392 184.035 405.523 182.733 408.151C181.431 410.778 180.779 413.596 180.779 416.602V421.432C180.779 425.551 181.49 429.043 182.91 431.908C184.354 434.749 186.355 436.915 188.912 438.406C191.468 439.874 194.44 440.608 197.825 440.608C200.027 440.608 202.015 440.3 203.791 439.685C205.59 439.045 207.141 438.098 208.443 436.844C209.745 435.565 210.751 433.979 211.461 432.085L219.558 434.358C218.706 437.104 217.273 439.519 215.261 441.602C213.249 443.662 210.763 445.272 207.804 446.432C204.844 447.568 201.518 448.136 197.825 448.136ZM299.92 404.67L292.392 406.801C291.918 405.546 291.22 404.327 290.297 403.143C289.397 401.936 288.166 400.942 286.603 400.161C285.041 399.379 283.04 398.989 280.602 398.989C277.264 398.989 274.482 399.758 272.257 401.297C270.055 402.812 268.954 404.741 268.954 407.085C268.954 409.169 269.712 410.814 271.227 412.021C272.742 413.229 275.109 414.235 278.329 415.04L286.426 417.028C291.303 418.212 294.937 420.023 297.328 422.462C299.719 424.876 300.914 427.99 300.914 431.801C300.914 434.926 300.015 437.72 298.216 440.182C296.44 442.644 293.954 444.585 290.758 446.006C287.562 447.426 283.845 448.136 279.608 448.136C274.044 448.136 269.44 446.929 265.794 444.514C262.148 442.099 259.84 438.572 258.869 433.932L266.824 431.943C267.581 434.879 269.013 437.08 271.12 438.548C273.251 440.016 276.033 440.75 279.466 440.75C283.372 440.75 286.473 439.921 288.77 438.264C291.09 436.583 292.25 434.571 292.25 432.227C292.25 430.333 291.587 428.747 290.261 427.469C288.935 426.167 286.899 425.196 284.153 424.557L275.062 422.426C270.067 421.242 266.397 419.408 264.054 416.922C261.734 414.412 260.574 411.276 260.574 407.511C260.574 404.434 261.438 401.711 263.166 399.344C264.918 396.976 267.297 395.118 270.304 393.768C273.334 392.419 276.767 391.744 280.602 391.744C286 391.744 290.237 392.928 293.315 395.295C296.416 397.663 298.618 400.788 299.92 404.67ZM335.689 448.136C330.765 448.136 326.444 446.964 322.727 444.621C319.034 442.277 316.146 438.998 314.062 434.784C312.003 430.57 310.973 425.646 310.973 420.011C310.973 414.33 312.003 409.37 314.062 405.132C316.146 400.894 319.034 397.604 322.727 395.26C326.444 392.916 330.765 391.744 335.689 391.744C340.613 391.744 344.922 392.916 348.615 395.26C352.332 397.604 355.22 400.894 357.28 405.132C359.363 409.37 360.405 414.33 360.405 420.011C360.405 425.646 359.363 430.57 357.28 434.784C355.22 438.998 352.332 442.277 348.615 444.621C344.922 446.964 340.613 448.136 335.689 448.136ZM335.689 440.608C339.429 440.608 342.507 439.649 344.922 437.732C347.337 435.814 349.124 433.293 350.284 430.168C351.444 427.043 352.024 423.657 352.024 420.011C352.024 416.366 351.444 412.968 350.284 409.82C349.124 406.671 347.337 404.126 344.922 402.185C342.507 400.243 339.429 399.273 335.689 399.273C331.948 399.273 328.871 400.243 326.456 402.185C324.041 404.126 322.254 406.671 321.094 409.82C319.934 412.968 319.354 416.366 319.354 420.011C319.354 423.657 319.934 427.043 321.094 430.168C322.254 433.293 324.041 435.814 326.456 437.732C328.871 439.649 331.948 440.608 335.689 440.608ZM373.198 447V392.455H381.294V400.977H382.005C383.141 398.065 384.976 395.804 387.509 394.195C390.042 392.561 393.084 391.744 396.635 391.744C400.234 391.744 403.229 392.561 405.62 394.195C408.034 395.804 409.917 398.065 411.266 400.977H411.834C413.231 398.16 415.326 395.923 418.12 394.266C420.913 392.585 424.263 391.744 428.169 391.744C433.046 391.744 437.035 393.271 440.137 396.325C443.238 399.356 444.789 404.079 444.789 410.494V447H436.408V410.494C436.408 406.47 435.307 403.593 433.105 401.865C430.904 400.137 428.311 399.273 425.328 399.273C421.493 399.273 418.522 400.433 416.415 402.753C414.308 405.049 413.255 407.961 413.255 411.489V447H404.732V409.642C404.732 406.541 403.726 404.043 401.713 402.149C399.701 400.232 397.109 399.273 393.936 399.273C391.758 399.273 389.722 399.853 387.828 401.013C385.958 402.173 384.443 403.783 383.283 405.842C382.147 407.878 381.578 410.234 381.578 412.909V447H373.198ZM482.981 448.136C477.725 448.136 473.192 446.976 469.38 444.656C465.592 442.312 462.669 439.045 460.609 434.855C458.573 430.641 457.555 425.741 457.555 420.153C457.555 414.566 458.573 409.642 460.609 405.381C462.669 401.096 465.533 397.758 469.203 395.366C472.896 392.952 477.205 391.744 482.129 391.744C484.97 391.744 487.775 392.218 490.545 393.165C493.315 394.112 495.836 395.651 498.109 397.781C500.382 399.888 502.193 402.682 503.542 406.162C504.892 409.642 505.566 413.927 505.566 419.017V422.568H463.521V415.324H497.044C497.044 412.246 496.428 409.5 495.197 407.085C493.99 404.67 492.261 402.765 490.012 401.368C487.787 399.971 485.159 399.273 482.129 399.273C478.791 399.273 475.903 400.101 473.464 401.759C471.049 403.392 469.191 405.523 467.889 408.151C466.587 410.778 465.936 413.596 465.936 416.602V421.432C465.936 425.551 466.646 429.043 468.066 431.908C469.511 434.749 471.511 436.915 474.068 438.406C476.625 439.874 479.596 440.608 482.981 440.608C485.183 440.608 487.172 440.3 488.947 439.685C490.746 439.045 492.297 438.098 493.599 436.844C494.901 435.565 495.907 433.979 496.618 432.085L504.714 434.358C503.862 437.104 502.43 439.519 500.417 441.602C498.405 443.662 495.919 445.272 492.96 446.432C490.001 447.568 486.674 448.136 482.981 448.136ZM530.673 447L514.054 392.455H522.86L534.65 434.216H535.218L546.866 392.455H555.815L567.321 434.074H567.889L579.679 392.455H588.485L571.866 447H563.627L551.696 405.097H550.843L538.912 447H530.673ZM607.946 414.188V447H599.565V374.273H607.946V400.977H608.656C609.934 398.16 611.852 395.923 614.409 394.266C616.989 392.585 620.422 391.744 624.707 391.744C628.424 391.744 631.679 392.49 634.473 393.982C637.266 395.449 639.432 397.71 640.971 400.764C642.534 403.795 643.315 407.653 643.315 412.341V447H634.934V412.909C634.934 408.577 633.81 405.227 631.561 402.859C629.335 400.468 626.246 399.273 622.292 399.273C619.546 399.273 617.084 399.853 614.906 401.013C612.752 402.173 611.047 403.866 609.792 406.091C608.561 408.316 607.946 411.015 607.946 414.188ZM681.516 448.136C676.261 448.136 671.727 446.976 667.915 444.656C664.128 442.312 661.204 439.045 659.144 434.855C657.108 430.641 656.09 425.741 656.09 420.153C656.09 414.566 657.108 409.642 659.144 405.381C661.204 401.096 664.068 397.758 667.738 395.366C671.431 392.952 675.74 391.744 680.664 391.744C683.505 391.744 686.31 392.218 689.08 393.165C691.85 394.112 694.371 395.651 696.644 397.781C698.917 399.888 700.728 402.682 702.077 406.162C703.427 409.642 704.102 413.927 704.102 419.017V422.568H662.056V415.324H695.579C695.579 412.246 694.963 409.5 693.732 407.085C692.525 404.67 690.797 402.765 688.548 401.368C686.322 399.971 683.694 399.273 680.664 399.273C677.326 399.273 674.438 400.101 671.999 401.759C669.585 403.392 667.726 405.523 666.424 408.151C665.122 410.778 664.471 413.596 664.471 416.602V421.432C664.471 425.551 665.181 429.043 666.602 431.908C668.046 434.749 670.046 436.915 672.603 438.406C675.16 439.874 678.131 440.608 681.516 440.608C683.718 440.608 685.707 440.3 687.482 439.685C689.281 439.045 690.832 438.098 692.134 436.844C693.436 435.565 694.442 433.979 695.153 432.085L703.249 434.358C702.397 437.104 700.965 439.519 698.952 441.602C696.94 443.662 694.454 445.272 691.495 446.432C688.536 447.568 685.21 448.136 681.516 448.136ZM716.85 447V392.455H724.947V400.693H725.515C726.509 397.994 728.308 395.804 730.913 394.124C733.517 392.443 736.452 391.602 739.719 391.602C740.335 391.602 741.104 391.614 742.028 391.638C742.951 391.661 743.649 391.697 744.123 391.744V400.267C743.839 400.196 743.188 400.089 742.17 399.947C741.175 399.782 740.122 399.699 739.009 399.699C736.358 399.699 733.99 400.255 731.907 401.368C729.847 402.457 728.214 403.972 727.006 405.913C725.823 407.831 725.231 410.021 725.231 412.483V447H716.85ZM775.266 448.136C770.011 448.136 765.477 446.976 761.665 444.656C757.878 442.312 754.954 439.045 752.894 434.855C750.858 430.641 749.84 425.741 749.84 420.153C749.84 414.566 750.858 409.642 752.894 405.381C754.954 401.096 757.818 397.758 761.488 395.366C765.181 392.952 769.49 391.744 774.414 391.744C777.255 391.744 780.06 392.218 782.83 393.165C785.6 394.112 788.121 395.651 790.394 397.781C792.667 399.888 794.478 402.682 795.827 406.162C797.177 409.642 797.852 413.927 797.852 419.017V422.568H755.806V415.324H789.329C789.329 412.246 788.713 409.5 787.482 407.085C786.275 404.67 784.547 402.765 782.298 401.368C780.072 399.971 777.444 399.273 774.414 399.273C771.076 399.273 768.188 400.101 765.749 401.759C763.335 403.392 761.476 405.523 760.174 408.151C758.872 410.778 758.221 413.596 758.221 416.602V421.432C758.221 425.551 758.931 429.043 760.352 431.908C761.796 434.749 763.796 436.915 766.353 438.406C768.91 439.874 771.881 440.608 775.266 440.608C777.468 440.608 779.457 440.3 781.232 439.685C783.031 439.045 784.582 438.098 785.884 436.844C787.186 435.565 788.192 433.979 788.903 432.085L796.999 434.358C796.147 437.104 794.715 439.519 792.702 441.602C790.69 443.662 788.204 445.272 785.245 446.432C782.286 447.568 778.96 448.136 775.266 448.136ZM816.708 447.568C814.956 447.568 813.453 446.941 812.198 445.686C810.943 444.431 810.316 442.928 810.316 441.176C810.316 439.424 810.943 437.921 812.198 436.666C813.453 435.411 814.956 434.784 816.708 434.784C818.46 434.784 819.963 435.411 821.218 436.666C822.473 437.921 823.1 439.424 823.1 441.176C823.1 442.336 822.804 443.402 822.212 444.372C821.644 445.343 820.875 446.124 819.904 446.716C818.957 447.284 817.892 447.568 816.708 447.568ZM844.247 447.568C842.495 447.568 840.992 446.941 839.737 445.686C838.482 444.431 837.855 442.928 837.855 441.176C837.855 439.424 838.482 437.921 839.737 436.666C840.992 435.411 842.495 434.784 844.247 434.784C845.999 434.784 847.502 435.411 848.757 436.666C850.012 437.921 850.639 439.424 850.639 441.176C850.639 442.336 850.343 443.402 849.751 444.372C849.183 445.343 848.414 446.124 847.443 446.716C846.496 447.284 845.431 447.568 844.247 447.568ZM871.786 447.568C870.034 447.568 868.531 446.941 867.276 445.686C866.022 444.431 865.394 442.928 865.394 441.176C865.394 439.424 866.022 437.921 867.276 436.666C868.531 435.411 870.034 434.784 871.786 434.784C873.538 434.784 875.041 435.411 876.296 436.666C877.551 437.921 878.178 439.424 878.178 441.176C878.178 442.336 877.882 443.402 877.29 444.372C876.722 445.343 875.953 446.124 874.982 446.716C874.035 447.284 872.97 447.568 871.786 447.568Z" fill="black"/>
theres a lot of stuff in the d attribute, I wonder if the first 7 letters mean anything...
once you find what they mean, find the file!
</svg>
