<svg width="700" height="700" viewBox="0 0 700 700" fill="none" xmlns="http://www.w3.org/2000/svg">
<rect width="700" height="700" fill="white"/>
<path d="M155.482 459V295.364H180.624V459H155.482ZM295.281 462.409C279.514 462.409 265.914 458.929 254.479 451.969C243.115 444.938 234.344 435.136 228.165 422.565C222.057 409.923 219.003 395.222 219.003 378.46C219.003 361.699 222.057 346.926 228.165 334.142C234.344 321.287 242.938 311.273 253.946 304.099C265.026 296.855 277.952 293.233 292.725 293.233C301.247 293.233 309.664 294.653 317.973 297.494C326.283 300.335 333.847 304.952 340.665 311.344C347.483 317.665 352.916 326.045 356.965 336.486C361.013 346.926 363.037 359.781 363.037 375.051V385.705H236.901V363.972H337.469C337.469 354.739 335.622 346.5 331.929 339.256C328.307 332.011 323.122 326.294 316.375 322.104C309.699 317.913 301.816 315.818 292.725 315.818C282.71 315.818 274.046 318.304 266.73 323.276C259.486 328.176 253.911 334.568 250.004 342.452C246.098 350.335 244.145 358.787 244.145 367.807V382.295C244.145 394.653 246.276 405.129 250.537 413.723C254.869 422.246 260.871 428.744 268.541 433.219C276.212 437.622 285.125 439.824 295.281 439.824C301.887 439.824 307.852 438.901 313.179 437.054C318.577 435.136 323.229 432.295 327.135 428.531C331.041 424.696 334.06 419.937 336.191 414.256L360.48 421.074C357.923 429.312 353.627 436.557 347.59 442.807C341.553 448.986 334.095 453.815 325.218 457.295C316.34 460.705 306.361 462.409 295.281 462.409ZM279.941 273.205L305.935 223.773H335.338L302.1 273.205H279.941ZM542.334 459H397.874V435.562H542.334V459ZM496.311 374.199H397.021V349.909H496.311V374.199ZM443.47 306.869L446.879 399.341C447.306 408.29 446.489 416.564 444.429 424.163C442.441 431.692 438.57 437.48 432.817 441.528L406.396 435.562C410.658 435.562 413.925 433.432 416.198 429.17C418.47 424.909 419.997 419.937 420.779 414.256C421.56 408.574 421.879 403.602 421.737 399.341L418.754 306.869C418.186 291.386 420.992 278.531 427.171 268.304C433.421 258.077 441.588 250.442 451.673 245.399C461.83 240.357 472.448 237.835 483.527 237.835C493.683 237.835 502.916 239.682 511.226 243.375C519.536 246.997 526.531 251.898 532.213 258.077C537.895 264.256 541.872 271.216 544.145 278.957C546.418 286.628 546.524 294.511 544.465 302.608L519.749 295.79C520.743 288.403 519.607 282.153 516.34 277.04C513.144 271.855 508.669 267.949 502.916 265.321C497.235 262.622 491.198 261.273 484.806 261.273C477.987 261.273 471.418 262.906 465.097 266.173C458.776 269.369 453.591 274.341 449.543 281.088C445.494 287.764 443.47 296.358 443.47 306.869Z" fill="black"/>
</svg>
